<svg xmlns="http://www.w3.org/2000/svg" width="111.414" height="24.867" viewBox="0 0 111.414 24.867"><g transform="translate(-121.253 -82.556)"><g transform="translate(179.716 83.264)"><g transform="translate(0 6.04)"><path d="M-28.76-28.9A4.489,4.489,0,0,1-30-26.9a4.248,4.248,0,0,1-3.106,1.271A4.248,4.248,0,0,1-36.214-26.9a4.252,4.252,0,0,1-1.3-3.117,4.264,4.264,0,0,1,1.3-3.127,4.232,4.232,0,0,1,3.107-1.282h.061v1.364a2.933,2.933,0,0,0-2.164.912,2.944,2.944,0,0,0-.881,2.163,2.849,2.849,0,0,0,.9,2.132,2.883,2.883,0,0,0,2.163.9,2.916,2.916,0,0,0,2.142-.882,3.038,3.038,0,0,0,.923-2.051v-7.813h1.281v7.515H-25.9v-7.31h1.3v7.31h2.266v-7.31h1.3V-28.9Z" transform="translate(37.516 37.695)" fill="#2a357c"/></g><g transform="translate(17.953 6.02)"><path d="M-14.785-4.681h-.134a2.941,2.941,0,0,0-2.148.892,2.953,2.953,0,0,0-.9,2.174v.02A2.893,2.893,0,0,0-17.082.527a2.963,2.963,0,0,0,2.061.9h3.168V-1.616A3.008,3.008,0,0,0-12.735-3.8a2.987,2.987,0,0,0-2.05-.882m-4.5,3.086v-.1A4.261,4.261,0,0,1-18-4.815,4.214,4.214,0,0,1-14.9-6.107h.113A4.312,4.312,0,0,1-11.76-4.825,4.3,4.3,0,0,1-10.478-1.7V1.429h1.466V2.711h-1.579A4.11,4.11,0,0,1-11.719,4.69a4.32,4.32,0,0,1-3.128,1.271h-.112V4.638h.02a2.977,2.977,0,0,0,2.183-.9,2.9,2.9,0,0,0,.676-1.026h-3A4.178,4.178,0,0,1-18,1.409a4.293,4.293,0,0,1-1.281-3" transform="translate(19.285 6.107)" fill="#2a357c"/></g><g transform="translate(27.806 6.02)"><path d="M-20.676-34.554a.937.937,0,0,1-.292.7.963.963,0,0,1-.692.282,1.007,1.007,0,0,1-.718-.282.929.929,0,0,1-.3-.7.928.928,0,0,1,.3-.7,1.007,1.007,0,0,1,.718-.282.963.963,0,0,1,.692.282.937.937,0,0,1,.292.7m.544-2.984a2.964,2.964,0,0,0,2.061-.9,2.917,2.917,0,0,0,.881-2.143,2.96,2.96,0,0,0-.891-2.174,2.935,2.935,0,0,0-2.153-.892,2.939,2.939,0,0,0-2.163.882,2.951,2.951,0,0,0-.9,2.164h-1.364v-.061a4.248,4.248,0,0,1,1.292-3.117,4.246,4.246,0,0,1,3.117-1.292,4.214,4.214,0,0,1,3.107,1.292,4.267,4.267,0,0,1,1.281,3.117,4.234,4.234,0,0,1-1.281,3.107,4.18,4.18,0,0,1-2.922,1.3h-6.9v-1.282h3.609l3.23-.02Z" transform="translate(26.971 45.073)" fill="#2a357c"/></g><g transform="translate(40.375 6.02)"><path d="M-14.345-4.681a2.919,2.919,0,0,0-2.143.882,2.976,2.976,0,0,0-.9,2.184v.02A2.893,2.893,0,0,0-16.508.527a2.93,2.93,0,0,0,2.061.9h3.168V-1.616A3.031,3.031,0,0,0-12.162-3.8a2.917,2.917,0,0,0-2.06-.882ZM-18.712-1.7a4.254,4.254,0,0,1,1.281-3.127,4.23,4.23,0,0,1,3.106-1.281h.1A4.3,4.3,0,0,1-11.2-4.825,4.255,4.255,0,0,1-9.915-1.7V1.429l-.1,1.282A4.237,4.237,0,0,1-11.156,4.69a4.275,4.275,0,0,1-3.128,1.271h-.1V4.638h.02a2.977,2.977,0,0,0,2.183-.9,2.929,2.929,0,0,0,.667-1.026h-2.994a4.228,4.228,0,0,1-2.922-1.3,4.2,4.2,0,0,1-1.281-3Z" transform="translate(18.712 6.107)" fill="#2a357c"/></g><path d="M603.527-644h1.281v10.527h-1.281Zm2.3-1.862v.786h-3.294v-.786h.234a1.308,1.308,0,0,1-.173-.839,1.527,1.527,0,0,1,.484-1.126,1.579,1.579,0,0,1,1.171-.484,1.358,1.358,0,0,1,1.118.484,1.836,1.836,0,0,1,.325,1.345h-.68a1.05,1.05,0,0,0-.234-.763.693.693,0,0,0-.528-.227.67.67,0,0,0-.522.227.78.78,0,0,0-.234.574.757.757,0,0,0,.219.56.824.824,0,0,0,.506.249Z" transform="translate(-552.878 648.314)" fill="#2a357c"/></g><g transform="translate(164.807 86.555)"><path d="M-1.682-44.334a7.192,7.192,0,0,0,3.636,1.025c2.075,0,3.288-1.1,3.288-2.681,0-1.468-.84-2.308-2.96-3.123-2.564-.909-4.149-2.238-4.149-4.452,0-2.447,2.028-4.266,5.081-4.266a7.137,7.137,0,0,1,3.474.77l-.56,1.654a6.256,6.256,0,0,0-2.984-.746C1-56.152.182-54.87.182-53.8c0,1.469.956,2.191,3.124,3.03,2.657,1.026,4.009,2.308,4.009,4.615,0,2.425-1.795,4.522-5.5,4.522a8.112,8.112,0,0,1-4.008-1Z" transform="translate(2.195 57.831)" fill="#2a357c"/></g><g transform="translate(147.78 87.486)"><path d="M-25.788-47.183a6.477,6.477,0,0,1-4.19-1.535,6.1,6.1,0,0,1-.944-1A6.45,6.45,0,0,1-32.291-53.7a6.427,6.427,0,0,1,1.369-3.982,6.074,6.074,0,0,1,.944-.985,6.424,6.424,0,0,1,4.19-1.535,6.509,6.509,0,0,1,6.513,6.5,6.517,6.517,0,0,1-6.513,6.513m0-14.364a7.766,7.766,0,0,0-5.123,1.919,7.009,7.009,0,0,0-.954.964A7.789,7.789,0,0,0-33.639-53.7a7.815,7.815,0,0,0,1.773,4.978,7.6,7.6,0,0,0,.954.965,7.766,7.766,0,0,0,5.123,1.919A7.87,7.87,0,0,0-17.927-53.7a7.861,7.861,0,0,0-7.861-7.851" transform="translate(33.639 61.547)" fill="#2a357c"/></g><g transform="translate(146.67 87.6)"><path d="M-12.605-5.928a7.634,7.634,0,0,0-3.837-1.8v1.369a6.414,6.414,0,0,1,2.883,1.4,5.665,5.665,0,0,1,.944.985,6.058,6.058,0,0,1,.944-.985,6.859,6.859,0,0,0-.934-.965" transform="translate(16.443 7.732)" fill="#2a357c"/></g><g transform="translate(141.866 85.564)"><path d="M-6.8-55.963c0,1.831-.146,2.322-.445,2.671a1.975,1.975,0,0,1-1.321.49l-.3.022.214,1.64H-8.4a3.821,3.821,0,0,0,2.567-.953,4.377,4.377,0,0,0,1-3.335V-73H-6.8Z" transform="translate(8.865 73)" fill="#f0b76e"/></g><g transform="translate(143.762 82.556)"><path d="M-3.736-7.53a1.167,1.167,0,0,0,.852-.34,1.089,1.089,0,0,0,.3-.8A1.1,1.1,0,0,0-3.7-9.823a1.136,1.136,0,0,0-1.17,1.154A1.113,1.113,0,0,0-3.736-7.53" transform="translate(4.873 9.823)" fill="#2a357c"/></g><g transform="translate(126.209 87.486)"><path d="M-42.685-38.9a5.236,5.236,0,0,1-.944.975,6.433,6.433,0,0,1-4.19,1.545,6.515,6.515,0,0,1-6.5-6.513,6.506,6.506,0,0,1,6.5-6.5,6.424,6.424,0,0,1,4.19,1.535,5.992,5.992,0,0,1,.944.975A6.464,6.464,0,0,1-41.306-42.9,6.487,6.487,0,0,1-42.685-38.9m.944-8.96a6.393,6.393,0,0,0-.944-.964,7.773,7.773,0,0,0-5.133-1.919A7.86,7.86,0,0,0-55.68-42.9a7.869,7.869,0,0,0,7.861,7.861,7.773,7.773,0,0,0,5.133-1.919,7.617,7.617,0,0,0,.954-.965A7.817,7.817,0,0,0-39.958-42.9a7.74,7.74,0,0,0-1.784-4.968" transform="translate(55.68 50.748)" fill="#2a357c"/></g><g transform="translate(138.26 87.589)"><path d="M0-9.13a6.018,6.018,0,0,1,.944.975,5.991,5.991,0,0,1,.944-.975,6.562,6.562,0,0,1,2.935-1.41v-1.369A7.868,7.868,0,0,0,.944-10.095,6.41,6.41,0,0,0,0-9.13" transform="translate(0 11.909)" fill="#2a357c"/></g><g transform="translate(121.253 91.354)"><path d="M-4.994-22.266s-1.259-2.811.5-3.167L-1.264-27l.831-2.043-5,2.732a2.593,2.593,0,0,0-.989,2.993c.475,2.21,1.307,1.511,1.425,1.053" transform="translate(6.515 29.044)" fill="#2a357c"/></g><g transform="translate(128.741 89.636)"><path d="M-18.9-.006a8.653,8.653,0,0,0-3.793,1.989,5.689,5.689,0,0,0-1.252,1.7,9.364,9.364,0,0,0-.706,2.064,5.536,5.536,0,0,1,.34-2.224,4.81,4.81,0,0,1,1.261-1.913A5.739,5.739,0,0,1-21.111.4,5.928,5.928,0,0,1-18.9-.006" transform="translate(24.655 0.008)" fill="#f0b76e"/></g><g transform="translate(155.51 95.078)"><path d="M0-19.607a8.659,8.659,0,0,0,3.713-2.134A5.693,5.693,0,0,0,4.9-23.486a9.383,9.383,0,0,0,.626-2.09,5.529,5.529,0,0,1-.255,2.235A4.808,4.808,0,0,1,4.085-21.38,5.734,5.734,0,0,1,2.193-20.1,5.93,5.93,0,0,1,0-19.607" transform="translate(0 25.576)" fill="#f0b76e"/></g></g></svg>