<svg xmlns="http://www.w3.org/2000/svg" width="17.5" height="23.284" viewBox="0 0 17.5 23.284"><path d="M12,1.75A7.25,7.25,0,1,0,19.25,9,7.25,7.25,0,0,0,12,1.75ZM3.25,9a8.75,8.75,0,1,1,15.418,5.666l1.6,6.708a1.75,1.75,0,0,1-2.4,2.009l-5.76-2.52a.25.25,0,0,0-.2,0l-5.761,2.52a1.75,1.75,0,0,1-2.4-2.009l1.6-6.708A8.718,8.718,0,0,1,3.25,9Zm3.337,6.875L5.194,21.722a.25.25,0,0,0,.344.287l5.76-2.52a1.75,1.75,0,0,1,1.4,0l5.761,2.52a.25.25,0,0,0,.344-.287l-1.393-5.847a8.751,8.751,0,0,1-10.826,0ZM16.53,6.47a.75.75,0,0,1,0,1.06l-4,4a.75.75,0,0,1-1.06,0l-2-2a.75.75,0,0,1,1.06-1.06L12,9.94l3.47-3.47a.75.75,0,0,1,1.06,0Z" transform="translate(-3.25 -0.25)" fill="#484848" fill-rule="evenodd"/></svg>