<svg xmlns="http://www.w3.org/2000/svg" width="25.446" height="22.767" viewBox="0 0 25.446 22.767"><path d="M13.769,3.606a1.353,1.353,0,0,0-1.592,0L5.123,8.736V21.514a1.354,1.354,0,0,0,1.353,1.354H8.912V16.1a2.978,2.978,0,0,1,2.978-2.978h2.166A2.978,2.978,0,0,1,17.033,16.1v6.768H19.47a1.354,1.354,0,0,0,1.353-1.354V8.736Zm8.679,6.312,1.959,1.425a.812.812,0,0,0,.955-1.315L14.725,2.294a2.978,2.978,0,0,0-3.5,0L.585,10.028a.812.812,0,0,0,.955,1.315L3.5,9.917v11.6a2.978,2.978,0,0,0,2.978,2.978H19.47a2.978,2.978,0,0,0,2.978-2.978ZM15.409,22.867V16.1a1.354,1.354,0,0,0-1.353-1.354H11.89A1.354,1.354,0,0,0,10.537,16.1v6.768Z" transform="translate(-0.25 -1.724)" fill="#2a357c" fill-rule="evenodd"/></svg>