<svg xmlns="http://www.w3.org/2000/svg" width="8.537" height="10.976" viewBox="0 0 8.537 10.976">
  <path id="Path_36092" data-name="Path 36092" d="M6.762,1.323a.366.366,0,0,0-.581.237A6.283,6.283,0,0,1,4.627,4.721l-.018.022A4.853,4.853,0,0,0,3.25,7.958a4.268,4.268,0,1,0,8.537,0,4.484,4.484,0,0,0-.974-2.739A5.421,5.421,0,0,0,10.15,4.5q-.15-.135-.312-.256l0,0a.366.366,0,0,0-.576.311,2.908,2.908,0,0,1-.015.3,4.333,4.333,0,0,1-.141.774,3.131,3.131,0,0,1-1.226,1.8l-.008.005a.154.154,0,0,1-.028-.16,7.52,7.52,0,0,0,.5-2.878A3.929,3.929,0,0,0,6.762,1.323ZM9.924,5.3a5.122,5.122,0,0,1-.117.522,3.864,3.864,0,0,1-1.521,2.2.725.725,0,0,1-.952-.1.884.884,0,0,1-.181-.914,6.8,6.8,0,0,0,.458-2.589,3.258,3.258,0,0,0-.838-2.116A7.356,7.356,0,0,1,5.216,5.155L5.184,5.2a4.148,4.148,0,0,0-1.2,2.762,3.537,3.537,0,0,0,7.073,0,3.758,3.758,0,0,0-.822-2.293A4.7,4.7,0,0,0,9.924,5.3Z" transform="translate(-3.25 -1.25)" fill="#f0b76e" fill-rule="evenodd"/>
</svg>
