<svg xmlns="http://www.w3.org/2000/svg" width="11.087" height="11.517" viewBox="0 0 11.087 11.517">
  <g id="_18" data-name="18" transform="translate(1.743 -0.432)">
    <g id="Group_34871" data-name="Group 34871" transform="translate(1.943 0.517)">
      <g id="_19" data-name="19" transform="translate(-4.45 -0.413)">
        <g id="Group_34878" data-name="Group 34878" transform="translate(0.763 0.327)">
          <path id="Path_36094" data-name="Path 36094" d="M5.276.8A1.357,1.357,0,0,1,7.338.8l.252.294a.617.617,0,0,0,.612.2l.377-.09a1.357,1.357,0,0,1,1.668,1.212l.031.386a.618.618,0,0,0,.378.521l.358.148a1.357,1.357,0,0,1,.637,1.961l-.2.331a.617.617,0,0,0,0,.643l.2.331A1.357,1.357,0,0,1,11.013,8.7l-.358.148a.617.617,0,0,0-.378.521l-.031.386a1.357,1.357,0,0,1-1.668,1.212l-.377-.09a.617.617,0,0,0-.612.2l-.252.295a1.357,1.357,0,0,1-2.062,0l-.252-.295a.617.617,0,0,0-.612-.2l-.377.09A1.357,1.357,0,0,1,2.367,9.755l-.031-.386a.617.617,0,0,0-.378-.521L1.6,8.7A1.357,1.357,0,0,1,.963,6.738l.2-.331a.617.617,0,0,0,0-.643l-.2-.331A1.357,1.357,0,0,1,1.6,3.473l.358-.148A.617.617,0,0,0,2.336,2.8l.031-.386A1.357,1.357,0,0,1,4.035,1.205l.377.09a.617.617,0,0,0,.612-.2L5.276.8Zm1.5.48a.617.617,0,0,0-.937,0l-.252.295a1.357,1.357,0,0,1-1.347.438l-.377-.09a.617.617,0,0,0-.758.551l-.031.386a1.357,1.357,0,0,1-.832,1.145l-.358.148a.617.617,0,0,0-.29.891l.2.331a1.357,1.357,0,0,1,0,1.416l-.2.331a.617.617,0,0,0,.29.891l.358.148A1.357,1.357,0,0,1,3.074,9.31L3.1,9.7a.617.617,0,0,0,.758.551l.377-.09a1.357,1.357,0,0,1,1.347.438l.252.295a.617.617,0,0,0,.937,0l.252-.295a1.357,1.357,0,0,1,1.347-.438l.377.09A.617.617,0,0,0,9.509,9.7l.031-.386a1.357,1.357,0,0,1,.832-1.145l.358-.148a.617.617,0,0,0,.29-.891l-.2-.331a1.357,1.357,0,0,1,0-1.416l.2-.331a.617.617,0,0,0-.29-.891l-.358-.148a1.357,1.357,0,0,1-.832-1.146l-.031-.386a.617.617,0,0,0-.758-.551l-.377.09a1.357,1.357,0,0,1-1.347-.438l-.252-.295ZM5.581,4.344a.37.37,0,0,1,0,.523l-.493.493a.37.37,0,1,1-.523-.523l.493-.493a.37.37,0,0,1,.523,0Zm2.467,0a.37.37,0,0,1,0,.523l-2.96,2.96A.37.37,0,0,1,4.565,7.3l2.96-2.96a.37.37,0,0,1,.523,0Zm0,2.467a.37.37,0,0,1,0,.523l-.493.493A.37.37,0,0,1,7.032,7.3l.493-.493a.37.37,0,0,1,.523,0Z" transform="translate(-0.763 -0.327)" fill="#293644" fill-rule="evenodd"/>
        </g>
      </g>
    </g>
  </g>
</svg>
