<svg xmlns="http://www.w3.org/2000/svg" width="21.324" height="22.944" viewBox="0 0 21.324 22.944"><path d="M12.6,2.18a1.25,1.25,0,0,0-1.2,0L2.97,6.78a.25.25,0,0,0,0,.44l8.432,4.6a1.25,1.25,0,0,0,1.2,0l8.432-4.6a.25.25,0,0,0,0-.44L12.6,2.18ZM13.317.864l8.433,4.6a1.749,1.749,0,0,1,0,3.072L19.983,9.5l1.767.964a1.749,1.749,0,0,1,0,3.072l-1.767.964,1.767.964a1.749,1.749,0,0,1,0,3.072l-8.433,4.6a2.75,2.75,0,0,1-2.634,0l-8.433-4.6a1.749,1.749,0,0,1,0-3.072L4.017,14.5,2.25,13.536a1.749,1.749,0,0,1,0-3.072L4.017,9.5,2.25,8.536a1.749,1.749,0,0,1,0-3.072l8.433-4.6a2.75,2.75,0,0,1,2.634,0Zm-7.734,9.49L2.97,11.781a.25.25,0,0,0,0,.438l8.432,4.6a1.25,1.25,0,0,0,1.2,0l8.432-4.6a.25.25,0,0,0,0-.438l-2.614-1.427-5.1,2.782a2.75,2.75,0,0,1-2.634,0l-5.1-2.782Zm0,5L2.97,16.781a.25.25,0,0,0,0,.439l8.432,4.6a1.25,1.25,0,0,0,1.2,0l8.432-4.6a.25.25,0,0,0,0-.44l-2.614-1.426-5.1,2.782a2.75,2.75,0,0,1-2.634,0l-5.1-2.782Z" transform="translate(-1.338 -0.528)" fill="#484848" fill-rule="evenodd"/></svg>