<svg xmlns="http://www.w3.org/2000/svg" width="11.359" height="10.565" viewBox="0 0 11.359 10.565">
  <g id="Shape" transform="translate(-21.353 9.903) rotate(180)" fill="#feca00" stroke-miterlimit="10">
    <path d="M -27.03279495239258 9.402725219726563 C -27.08079528808594 9.402725219726563 -27.19894409179688 9.389985084533691 -27.25918579101563 9.272025108337402 L -28.61247444152832 6.622235298156738 L -28.73023414611816 6.391665458679199 L -28.98649406433105 6.35476541519165 L -32.00201416015625 5.920475482940674 C -32.14322662353516 5.900135517120361 -32.18909454345703 5.802085399627686 -32.20225524902344 5.760865211486816 C -32.21988677978516 5.705715179443359 -32.22407531738281 5.623935222625732 -32.14399337768555 5.547585487365723 L -29.96310424804688 3.468345403671265 L -29.76984405517578 3.284085273742676 L -29.81548500061035 3.020995378494263 L -30.32290458679199 0.09594535827636719 C -30.33381462097168 0.03304535523056984 -30.31931495666504 -0.02106464467942715 -30.2785758972168 -0.06947464495897293 C -30.23017501831055 -0.1269946396350861 -30.15293502807617 -0.162724643945694 -30.07698440551758 -0.162724643945694 C -30.03566551208496 -0.162724643945694 -29.99448585510254 -0.1524446457624435 -29.9545841217041 -0.1321646422147751 L -27.25930404663086 1.237485408782959 L -27.03279495239258 1.352595329284668 L -26.8062858581543 1.237485408782959 L -24.11098480224609 -0.1321746408939362 C -24.07109451293945 -0.1524446457624435 -24.0299243927002 -0.162724643945694 -23.98860549926758 -0.162724643945694 C -23.91267585754395 -0.162724643945694 -23.83543586730957 -0.126984640955925 -23.78702545166016 -0.06945464760065079 C -23.74628448486328 -0.02103464491665363 -23.73177528381348 0.03306535631418228 -23.74268531799316 0.09593535214662552 L -24.25011444091797 3.020995378494263 L -24.29575538635254 3.284085273742676 L -24.10249519348145 3.468345403671265 L -21.92160415649414 5.547585487365723 C -21.84151458740234 5.623935222625732 -21.8457145690918 5.705705165863037 -21.86333465576172 5.760865211486816 C -21.87650489807129 5.802075386047363 -21.9223747253418 5.900135517120361 -22.0636043548584 5.920475482940674 L -25.07910537719727 6.35476541519165 L -25.33536529541016 6.391665458679199 L -25.453125 6.622235298156738 L -26.80639457702637 9.271995544433594 C -26.86664581298828 9.389985084533691 -26.98479461669922 9.402725219726563 -27.03279495239258 9.402725219726563 Z" stroke="none"/>
    <path d="M -27.03279685974121 8.615991592407227 L -25.89841461181641 6.394825458526611 L -25.66289520263672 5.933675289154053 L -25.1503849029541 5.859865188598633 L -22.69027519226074 5.505562305450439 L -24.4475154876709 3.830225467681885 L -24.83404541015625 3.461715459823608 L -24.74275588989258 2.935535430908203 L -24.3269100189209 0.5384106636047363 L -26.57976531982422 1.68323540687561 L -27.03279495239258 1.913445353507996 L -27.48582458496094 1.68323540687561 L -29.73868560791016 0.5384038686752319 L -29.32284545898438 2.935535430908203 L -29.23156547546387 3.461715459823608 L -29.61808586120605 3.830225467681885 L -31.37532806396484 5.505564212799072 L -28.91521453857422 5.859865188598633 L -28.4027042388916 5.933675289154053 L -28.16718482971191 6.394825458526611 L -27.03279685974121 8.615991592407227 M -27.03279876708984 9.90272045135498 C -27.29999160766602 9.90272045135498 -27.56718444824219 9.768285751342773 -27.7044849395752 9.499415397644043 L -29.05776405334473 6.849655151367188 L -32.07328414916992 6.415365219116211 C -32.68372344970703 6.327445507049561 -32.92817306518555 5.604385375976563 -32.489013671875 5.185695171356201 L -30.30812454223633 3.106455326080322 L -30.81554412841797 0.1814053505659103 C -30.8964672088623 -0.285058468580246 -30.51237869262695 -0.6627210378646851 -30.07698631286621 -0.6627210378646851 C -29.96174621582031 -0.6627210378646851 -29.84282875061035 -0.6362285017967224 -29.72808456420898 -0.5779246687889099 L -27.03279495239258 0.7917353510856628 L -24.33749580383301 -0.5779246687889099 C -24.22272491455078 -0.6362455487251282 -24.1038761138916 -0.6627210378646851 -23.98860359191895 -0.6627210378646851 C -23.55326271057129 -0.6627210378646851 -23.16912269592285 -0.2850224673748016 -23.25004577636719 0.1814053505659103 L -23.75747489929199 3.106455326080322 L -21.57658576965332 5.185695171356201 C -21.13741493225098 5.604385375976563 -21.38186454772949 6.327445507049561 -21.99233436584473 6.415365219116211 L -25.00783538818359 6.849655151367188 L -26.36110496520996 9.499415397644043 C -26.49840927124023 9.768285751342773 -26.76560401916504 9.90272045135498 -27.03279876708984 9.90272045135498 Z" stroke="none" fill="#f8b430"/>
  </g>
</svg>
