<?xml version="1.0" standalone="no"?>
<!DOCTYPE svg PUBLIC "-//W3C//DTD SVG 20010904//EN"
 "http://www.w3.org/TR/2001/REC-SVG-20010904/DTD/svg10.dtd">
<svg version="1.0" xmlns="http://www.w3.org/2000/svg"
 width="695.000000pt" height="359.000000pt" viewBox="0 0 695.000000 359.000000"
 preserveAspectRatio="xMidYMid meet">

<g transform="translate(0.000000,359.000000) scale(0.100000,-0.100000)"
fill="#000000" stroke="none">
<path d="M465 2891 c-64 -17 -118 -57 -143 -106 -29 -57 -34 -134 -17 -253 53
-371 166 -796 295 -1105 65 -156 245 -488 280 -517 4 -3 26 -32 50 -65 67 -93
255 -274 350 -336 303 -201 650 -271 988 -200 317 67 571 202 755 401 79 85
137 172 207 306 28 55 60 115 71 134 31 53 109 128 146 141 86 28 177 -56 273
-254 148 -308 365 -510 695 -648 127 -53 338 -98 490 -105 406 -19 804 169
1092 516 203 245 374 586 497 990 137 451 203 873 153 982 -21 47 -58 83 -105
105 -82 38 -364 18 -722 -52 -572 -112 -1114 -338 -1635 -681 -126 -83 -286
-195 -310 -217 -25 -23 -176 -117 -235 -146 -25 -13 -71 -31 -102 -41 -57 -19
-59 -19 -115 -1 -59 19 -176 77 -225 112 -14 11 -29 19 -33 19 -4 0 -46 30
-93 66 -101 78 -301 216 -422 291 -155 95 -549 303 -576 303 -3 0 -29 11 -57
24 -115 53 -221 92 -497 181 -293 94 -932 189 -1055 156z m215 -176 c47 -24
70 -66 70 -128 0 -48 -4 -58 -35 -90 -91 -93 -245 -36 -245 91 0 54 22 97 63
122 38 24 106 26 147 5z m5747 -5 c60 -36 80 -116 47 -185 -20 -43 -52 -64
-107 -71 -112 -16 -192 102 -141 205 34 67 133 93 201 51z m-4947 -235 c292
-68 654 -203 890 -334 30 -17 62 -34 70 -38 54 -25 182 -107 265 -168 142
-104 273 -252 338 -380 90 -179 90 -417 1 -580 -56 -101 -162 -221 -239 -271
-17 -10 -39 -27 -49 -36 -34 -31 -217 -116 -316 -147 -262 -83 -515 -90 -724
-20 -217 73 -426 235 -583 454 -44 62 -153 246 -153 260 0 2 -11 28 -24 58
-30 65 -89 258 -107 352 -20 105 -18 382 4 472 75 312 307 452 627 378z m4300
3 c330 -82 446 -551 270 -1088 -30 -90 -114 -276 -150 -330 -9 -14 -39 -58
-66 -99 -60 -91 -216 -252 -304 -313 -79 -56 -204 -120 -285 -147 -82 -27
-226 -51 -306 -51 -156 0 -383 47 -524 110 -22 10 -62 27 -88 38 -49 22 -190
116 -240 162 -48 43 -146 169 -173 223 -40 77 -54 134 -61 233 -14 216 60 386
252 580 124 125 231 204 410 304 53 30 293 150 299 150 3 0 29 11 58 24 156
70 375 144 593 198 105 27 223 29 315 6z"/>
<path d="M1685 2885 c-10 -4 -215 -22 -385 -34 -105 -8 -104 -10 25 -39 50
-11 116 -27 148 -36 44 -12 104 -16 249 -16 207 0 280 -11 370 -56 56 -28 128
-107 171 -189 27 -50 41 -64 87 -88 59 -30 219 -121 259 -146 23 -15 23 -15
16 20 -4 18 -13 47 -20 64 -7 16 -25 60 -40 96 -97 243 -237 372 -455 419 -41
9 -402 13 -425 5z"/>
<path d="M4805 2867 c-44 -12 -98 -32 -120 -44 -71 -38 -162 -130 -214 -217
-48 -79 -141 -292 -141 -322 0 -18 14 -18 30 1 7 8 17 15 22 15 6 0 22 8 36
19 15 10 63 38 107 62 44 23 93 50 110 59 18 10 45 43 66 81 74 130 143 187
271 220 58 15 108 19 264 19 148 0 207 4 251 16 32 9 102 26 156 37 53 12 97
24 97 27 0 4 -48 10 -107 14 -60 4 -148 11 -198 17 -49 5 -193 12 -320 14
-215 4 -235 3 -310 -18z"/>
</g>
</svg>
