<svg xmlns="http://www.w3.org/2000/svg" width="21.5" height="17.84" viewBox="0 0 21.5 17.84">
  <path id="Path_36085" data-name="Path 36085" d="M9.234,3.622a1.144,1.144,0,0,0-.951.51L7.267,5.653a1.6,1.6,0,0,1-1.331.713H2.766A1.144,1.144,0,0,0,1.622,7.51v8.234a1.144,1.144,0,0,0,1.144,1.144H5.587a6.176,6.176,0,1,1,10.828,0h2.82a1.144,1.144,0,0,0,1.144-1.144V7.511a1.144,1.144,0,0,0-1.144-1.144h-3.17a1.6,1.6,0,0,1-1.332-.714L13.716,4.132a1.144,1.144,0,0,0-.951-.51H9.234Zm6.154,14.638h3.846a2.516,2.516,0,0,0,2.516-2.516V7.511a2.516,2.516,0,0,0-2.516-2.516h-3.17a.229.229,0,0,1-.19-.1L14.858,3.371A2.516,2.516,0,0,0,12.766,2.25H9.234A2.516,2.516,0,0,0,7.141,3.371L6.125,4.893a.229.229,0,0,1-.189.1H2.766A2.516,2.516,0,0,0,.25,7.511v8.234a2.516,2.516,0,0,0,2.516,2.516H6.612a6.176,6.176,0,0,0,8.776,0ZM11,9.112a4.8,4.8,0,1,0,4.8,4.8,4.8,4.8,0,0,0-4.8-4.8Z" transform="translate(-0.25 -2.25)" fill="#484848" fill-rule="evenodd"/>
</svg>
