<svg xmlns="http://www.w3.org/2000/svg" width="15.214" height="15.214" viewBox="0 0 15.214 15.214"><path d="M11.643,1.644a1.93,1.93,0,0,1,2.731,0L15.9,3.168a1.93,1.93,0,0,1,0,2.731L6.07,15.727a1.93,1.93,0,0,1-1.365.565H1.776a.526.526,0,0,1-.526-.526V12.836a1.932,1.932,0,0,1,.565-1.365L4.444,8.843,7.9,5.391l3.747-3.747Zm1.986.744a.877.877,0,0,0-1.241,0L10.945,3.831,13.71,6.6l1.443-1.443a.877.877,0,0,0,0-1.241Zm-.663,4.953L10.2,4.575,2.56,12.217a.877.877,0,0,0-.257.62v2.4h2.4a.877.877,0,0,0,.62-.257l7.641-7.641Z" transform="translate(-1.25 -1.078)" fill="#2b2d3d" fill-rule="evenodd"/></svg>