<?xml version="1.0" standalone="no"?>
<!DOCTYPE svg PUBLIC "-//W3C//DTD SVG 20010904//EN"
 "http://www.w3.org/TR/2001/REC-SVG-20010904/DTD/svg10.dtd">
<svg version="1.0" xmlns="http://www.w3.org/2000/svg"
 width="373.000000pt" height="135.000000pt" viewBox="0 0 373.000000 135.000000"
 preserveAspectRatio="xMidYMid meet">

<g transform="translate(0.000000,135.000000) scale(0.100000,-0.100000)"
fill="#000000" stroke="none">
<path d="M575 1164 c-140 -11 -376 -37 -418 -46 -55 -11 -67 -30 -67 -106 0
-41 6 -54 45 -102 48 -58 54 -78 74 -248 30 -245 148 -465 290 -536 107 -55
152 -61 446 -61 298 0 343 7 457 67 168 89 249 233 313 555 35 172 41 191 75
208 34 17 109 20 143 4 36 -16 44 -36 78 -201 56 -275 98 -378 194 -473 66
-66 148 -114 240 -140 79 -23 463 -33 590 -16 157 21 262 78 334 181 86 122
132 257 157 459 17 137 20 146 75 213 33 39 39 54 38 90 -2 78 -10 92 -61 104
-130 33 -382 48 -783 49 -379 0 -413 -1 -645 -29 -235 -28 -252 -28 -400 -17
-85 6 -204 18 -265 27 -106 14 -785 27 -910 18z m670 -124 c233 -26 355 -116
355 -260 0 -79 -26 -257 -45 -310 -37 -104 -125 -203 -220 -246 -101 -47 -179
-56 -415 -51 -268 6 -340 24 -430 106 -99 90 -145 223 -145 421 0 146 5 167
47 215 56 65 166 106 343 129 97 13 378 11 510 -4z m1842 -9 c179 -37 268 -98
293 -201 16 -66 8 -239 -15 -323 -34 -130 -107 -232 -196 -278 -85 -43 -135
-51 -356 -56 -307 -7 -412 18 -528 128 -97 92 -142 216 -151 424 -7 139 3 167
74 222 101 77 228 101 547 102 199 1 256 -3 332 -18z"/>
</g>
</svg>
