<svg xmlns="http://www.w3.org/2000/svg" width="10.478" height="10.478" viewBox="0 0 10.478 10.478">
  <g id="_21" data-name="21" transform="translate(-1.25 -1.25)" style="isolation: isolate">
    <g id="Group_35175" data-name="Group 35175" transform="translate(1.25 1.25)">
      <path id="Path_36118" data-name="Path 36118" d="M1.25,2.58A1.33,1.33,0,0,1,2.58,1.25H6.047a1.331,1.331,0,0,1,.94.389l4.352,4.352a1.33,1.33,0,0,1,0,1.881L7.872,11.339a1.33,1.33,0,0,1-1.881,0L1.639,6.987a1.33,1.33,0,0,1-.389-.94V2.58Zm1.33-.6a.6.6,0,0,0-.6.6V6.047a.6.6,0,0,0,.177.427L6.5,10.826a.6.6,0,0,0,.855,0l3.467-3.467a.6.6,0,0,0,0-.855L6.474,2.152a.6.6,0,0,0-.427-.177H2.58Zm1.194,1.8a.363.363,0,0,1,.513,0l.484.484a.363.363,0,0,1-.513.513l-.484-.484a.363.363,0,0,1,0-.513Z" transform="translate(-1.25 -1.25)" fill="#2a357c" fill-rule="evenodd"/>
    </g>
  </g>
</svg>
