<svg xmlns="http://www.w3.org/2000/svg" width="23.5" height="15.499" viewBox="0 0 23.5 15.499">
  <g id="Group_34835" data-name="Group 34835" transform="translate(-0.25 -4.25)" style="isolation: isolate">
    <path id="Path_36087" data-name="Path 36087" d="M4.612,5.844a3.309,3.309,0,0,1,6,.78,2.751,2.751,0,0,1,2.768,0,3.31,3.31,0,0,1,6-.78L22.875,11.6a5.25,5.25,0,1,1-9.625,2.9,1.25,1.25,0,0,0-2.5,0,5.25,5.25,0,1,1-9.625-2.9L4.612,5.844ZM4.2,9.41A5.259,5.259,0,0,1,9.25,10.825V7.559a1.809,1.809,0,0,0-3.356-.938L4.2,9.411ZM10.75,9v3.05a2.754,2.754,0,0,1,2.5,0V9a1.25,1.25,0,0,0-2.5,0Zm4,1.826A5.26,5.26,0,0,1,19.8,9.412l-1.691-2.79a1.809,1.809,0,0,0-3.356.937v3.267Zm0,3.674a3.75,3.75,0,1,0,3.75-3.75,3.75,3.75,0,0,0-3.75,3.75Zm-5.5,0A3.75,3.75,0,1,0,5.5,18.25,3.75,3.75,0,0,0,9.25,14.5Z" fill="#484848" fill-rule="evenodd"/>
  </g>
</svg>
