<svg xmlns="http://www.w3.org/2000/svg" width="16.73" height="14.059" viewBox="0 0 16.73 14.059"><path d="M8.723,3.492a5.085,5.085,0,0,0-6.772.374,4.906,4.906,0,0,0-.21,6.8C2.893,11.92,4.257,13.334,5.5,14.438a15.443,15.443,0,0,0,1.769,1.388,3.153,3.153,0,0,0,1.567.61,3.151,3.151,0,0,0,1.567-.61,15.43,15.43,0,0,0,1.769-1.388c1.246-1.105,2.61-2.52,3.762-3.774a4.906,4.906,0,0,0-.21-6.8,5.085,5.085,0,0,0-6.772-.374l-.115.092-.115-.092Z" transform="translate(-0.473 -2.378)" fill="#ff5657" fill-rule="evenodd"/></svg>