<svg xmlns="http://www.w3.org/2000/svg" width="16.73" height="14.059" viewBox="0 0 16.73 14.059">
  <path id="Path_3038" data-name="Path 3038" d="M2.721,4.636a4,4,0,0,1,5.322-.295l.8.636.8-.636a4,4,0,0,1,5.322.295,3.819,3.819,0,0,1,.178,5.293c-1.143,1.245-2.478,2.627-3.682,3.7a14.315,14.315,0,0,1-1.637,1.288,2.254,2.254,0,0,1-.976.435,2.254,2.254,0,0,1-.976-.435,14.363,14.363,0,0,1-1.637-1.287c-1.2-1.068-2.539-2.451-3.682-3.7a3.817,3.817,0,0,1,.179-5.292Zm6-1.144a5.085,5.085,0,0,0-6.772.374,4.906,4.906,0,0,0-.21,6.8C2.893,11.92,4.257,13.334,5.5,14.438a15.443,15.443,0,0,0,1.769,1.388,3.153,3.153,0,0,0,1.567.61,3.151,3.151,0,0,0,1.567-.61,15.43,15.43,0,0,0,1.769-1.388c1.246-1.105,2.61-2.52,3.762-3.774a4.906,4.906,0,0,0-.21-6.8,5.085,5.085,0,0,0-6.772-.374l-.115.092-.115-.092Z" transform="translate(-0.473 -2.378)" fill="#484848" fill-rule="evenodd"/>
</svg>
