<svg xmlns="http://www.w3.org/2000/svg" width="21.002" height="23.5" viewBox="0 0 21.002 23.5">
  <g id="_6" data-name="6" transform="translate(-1.499 -0.25)" style="isolation: isolate">
    <g id="Group_35174" data-name="Group 35174">
      <path id="Path_36117" data-name="Path 36117" d="M12,1.75A3.25,3.25,0,0,0,8.75,5v.25h6.5V5A3.25,3.25,0,0,0,12,1.75Zm4.75,3.5V5a4.75,4.75,0,1,0-9.5,0v.25H5.779A2.75,2.75,0,0,0,3.047,7.679l-1.529,13A2.75,2.75,0,0,0,4.249,23.75h15.5a2.75,2.75,0,0,0,2.731-3.071l-1.53-13a2.75,2.75,0,0,0-2.73-2.429H16.75Zm-1.5,1.5V8a.75.75,0,0,0,1.5,0V6.75h1.472a1.25,1.25,0,0,1,1.241,1.1l1.53,13a1.25,1.25,0,0,1-1.242,1.4H4.249a1.25,1.25,0,0,1-1.241-1.4l1.53-13a1.25,1.25,0,0,1,1.24-1.1H7.25V8a.75.75,0,0,0,1.5,0V6.75Z" fill="#f0b76e" fill-rule="evenodd"/>
    </g>
  </g>
</svg>
