<svg xmlns="http://www.w3.org/2000/svg" width="50" height="50" viewBox="0 0 50 50"><g transform="translate(-0.75 -0.75)" style="isolation:isolate"><g transform="translate(1.25 1.25)"><path d="M14.924,7.517A6.267,6.267,0,0,1,21.192,1.25H43.983A6.267,6.267,0,0,1,50.25,7.517V41.7A8.547,8.547,0,0,1,41.7,50.25H9.8A8.547,8.547,0,0,1,1.25,41.7a6.267,6.267,0,0,1,6.267-6.267h7.407ZM7.517,38.855A2.85,2.85,0,0,0,4.669,41.7,5.128,5.128,0,0,0,9.8,46.831h25.07A8.51,8.51,0,0,1,33.157,41.7a2.85,2.85,0,0,0-2.849-2.849Zm10.826-3.419V7.517a2.85,2.85,0,0,1,2.849-2.849H43.983a2.85,2.85,0,0,1,2.849,2.849V41.7a5.128,5.128,0,0,1-10.256,0,6.267,6.267,0,0,0-6.267-6.267Zm5.7-21.081a1.709,1.709,0,0,1,1.709-1.709H39.424a1.709,1.709,0,0,1,0,3.419H25.75a1.709,1.709,0,0,1-1.709-1.709Zm0,9.116a1.709,1.709,0,0,1,1.709-1.709h6.837a1.709,1.709,0,0,1,0,3.419H25.75A1.709,1.709,0,0,1,24.041,23.471Z" transform="translate(-1.25 -1.25)" fill="#f0b76e" stroke="#2a357c" stroke-width="1" fill-rule="evenodd"/></g></g></svg>