<svg xmlns="http://www.w3.org/2000/svg" width="17.661" height="17.661" viewBox="0 0 17.661 17.661"><path d="M3.534,2.487a.912.912,0,0,0-.953.968A15.883,15.883,0,0,0,16.8,17.669a.912.912,0,0,0,.968-.953V13.781a1.031,1.031,0,0,0-.705-.978L14.2,11.851a1.031,1.031,0,0,0-1.055.249l-.457.457a1.427,1.427,0,0,1-1.815.176A11.248,11.248,0,0,1,7.495,9.361a1.423,1.423,0,0,1,.188-1.793L8.15,7.1A1.031,1.031,0,0,0,8.4,6.046L7.447,3.192a1.031,1.031,0,0,0-.977-.7ZM1.35,3.577A2.148,2.148,0,0,1,3.534,1.25H6.47A2.268,2.268,0,0,1,8.621,2.8l.952,2.854a2.268,2.268,0,0,1-.549,2.321l-.467.467a.186.186,0,0,0-.031.233,10.021,10.021,0,0,0,3.049,3.035.19.19,0,0,0,.242-.029l.457-.457a2.268,2.268,0,0,1,2.321-.549l2.854.952A2.268,2.268,0,0,1,19,13.781v2.935A2.149,2.149,0,0,1,16.673,18.9,17.121,17.121,0,0,1,1.35,3.577Z" transform="translate(-1.339 -1.25)" fill="#fff" fill-rule="evenodd"/></svg>