<svg xmlns="http://www.w3.org/2000/svg" width="19.317" height="19.453" viewBox="0 0 19.317 19.453"><g style="isolation:isolate"><path d="M15.787,0a2.9,2.9,0,0,0-2.872,3.253l.3,2.371A3.4,3.4,0,0,0,16.579,8.6h1.3l.036.348a8.3,8.3,0,1,1-16.512,0L1.438,8.6h1.3A3.4,3.4,0,0,0,6.1,5.624l.3-2.371A2.894,2.894,0,1,0,.649,2.62l-.5,5.228-.1.957A9.647,9.647,0,0,0,9.658,19.454,9.647,9.647,0,0,0,19.265,8.8l-.1-.951V7.848l-.5-5.228A2.882,2.882,0,0,0,15.787,0Zm.792,7.239a2.04,2.04,0,0,1-2.02-1.783l-.3-2.371a1.537,1.537,0,1,1,3.055-.337l.427,4.49Zm-15.007,0L2,2.749a1.537,1.537,0,1,1,3.055.337l-.3,2.371a2.04,2.04,0,0,1-2.02,1.783Z" transform="translate(19.317 19.454) rotate(180)" fill="#484848"/></g></svg>