<svg xmlns="http://www.w3.org/2000/svg" width="21.411" height="21.5" viewBox="0 0 21.411 21.5"><g transform="translate(-1.295 0.75)" style="isolation:isolate"><path d="M12,2.75A4.25,4.25,0,1,0,16.25,7,4.25,4.25,0,0,0,12,2.75Zm3.244,9a5.75,5.75,0,1,0-6.488,0A10.759,10.759,0,0,0,1.3,20.928,1.678,1.678,0,0,0,3,22.75H21a1.678,1.678,0,0,0,1.7-1.823,10.762,10.762,0,0,0-7.453-9.179ZM12,12.75a9.251,9.251,0,0,0-9.2,8.324.13.13,0,0,0,.04.111A.228.228,0,0,0,3,21.25H21a.23.23,0,0,0,.165-.065.13.13,0,0,0,.04-.11A9.251,9.251,0,0,0,12,12.75Z" transform="translate(0 -2)" fill="#484848" fill-rule="evenodd"/></g></svg>