<svg xmlns="http://www.w3.org/2000/svg" width="11.252" height="11.252" viewBox="0 0 11.252 11.252">
  <path id="Path_36095" data-name="Path 36095" d="M5.876.968a4.907,4.907,0,0,0-3.527,8.32,2.274,2.274,0,0,1,2.09-1.377H7.312A2.274,2.274,0,0,1,9.4,9.289,4.908,4.908,0,0,0,5.876.968ZM8.821,9.8A1.557,1.557,0,0,0,7.312,8.629H4.439A1.557,1.557,0,0,0,2.931,9.8a4.908,4.908,0,0,0,5.89,0ZM.25,5.876a5.625,5.625,0,1,1,2.061,4.352A5.625,5.625,0,0,1,.25,5.876ZM5.876,3.362A1.556,1.556,0,1,0,7.441,4.918,1.561,1.561,0,0,0,5.876,3.362ZM3.593,4.918A2.283,2.283,0,1,1,5.876,7.193,2.278,2.278,0,0,1,3.593,4.918Z" transform="translate(-0.25 -0.25)" fill="#293644" fill-rule="evenodd"/>
</svg>
