<svg xmlns="http://www.w3.org/2000/svg" width="13.476" height="18.501" viewBox="0 0 13.476 18.501"><g transform="translate(-4.262 -3.75)" style="isolation:isolate"><path d="M4.25,3.755a2.391,2.391,0,0,1,3.868-1.88l8.694,6.831a2.391,2.391,0,0,1,.914,1.88v.049a2.391,2.391,0,0,1-.913,1.879L8.118,19.345a2.391,2.391,0,0,1-3.868-1.88V3.755ZM7.312,2.9a1.087,1.087,0,0,0-1.758.855v13.71a1.087,1.087,0,0,0,1.758.855l8.694-6.831a1.087,1.087,0,0,0,.416-.855v-.049a1.087,1.087,0,0,0-.415-.855L7.312,2.9Z" transform="translate(0.012 2.39)" fill="#f0b76e" fill-rule="evenodd"/></g></svg>