<svg xmlns="http://www.w3.org/2000/svg" width="18.286" height="16" viewBox="0 0 18.286 16"><g transform="translate(0 -3)" style="isolation:isolate"><path d="M13.715,40a1.143,1.143,0,1,0,1.143,1.143A1.143,1.143,0,0,0,13.715,40Zm2.857-5.714H16v-.571A1.714,1.714,0,0,0,14.286,32H3.429A3.429,3.429,0,0,0,0,35.429v9.143A3.429,3.429,0,0,0,3.429,48H16a2.286,2.286,0,0,0,2.286-2.286V36A1.714,1.714,0,0,0,16.572,34.286Zm.571,11.429A1.144,1.144,0,0,1,16,46.857H3.429a2.288,2.288,0,0,1-2.286-2.286V35.429a2.288,2.288,0,0,1,2.286-2.286H14.286a.572.572,0,0,1,.571.571v.571H4a.571.571,0,1,0,0,1.143H16.572a.572.572,0,0,1,.571.571Z" transform="translate(0 -29)" fill="#f0b76e"/></g></svg>